<?xml version="1.0" encoding="UTF-8"?>
<svg id="Calque_2" data-name="Calque 2" xmlns="http://www.w3.org/2000/svg" viewBox="0 0 169.37 155.4">
  <defs>
    <style>
      .cls-1 {
        fill: #b9f305;
      }
    </style>
  </defs>
  <g id="Calque_4" data-name="Calque 4">
    <g>
      <polygon class="cls-1" points="22.95 34.3 28.74 34.3 25.83 24.82 22.95 34.3"/>
      <path class="cls-1" d="M46.64,0H14.91C6.75,0,.07,6.68.07,14.84v31.73c0,8.16,6.68,14.84,14.84,14.84h31.73c8.16,0,14.84-6.68,14.84-14.84V14.84c0-8.16-6.68-14.84-14.84-14.84ZM31.74,44.34l-1.32-4.35h-9.24l-1.29,4.35h-8.31l9.9-26.35h8.88l9.9,26.35h-8.53ZM49.96,44.34h-7.31v-19.09h7.31v19.09ZM49.96,22.97h-7.31v-4.98h7.31v4.98Z"/>
    </g>
    <g>
      <path class="cls-1" d="M144.32,32.06c-.95,0-1.75.4-2.39,1.19-.64.79-.96,2.12-.96,3.98,0,1.74.33,3.02.99,3.83.66.81,1.48,1.22,2.46,1.22,1.04,0,1.92-.41,2.61-1.23s1.05-2.15,1.05-4c0-1.67-.36-2.92-1.07-3.75-.71-.82-1.61-1.24-2.69-1.24Z"/>
      <path class="cls-1" d="M154.52.93h-31.77c-8.17,0-14.85,6.68-14.85,14.85v31.77c0,8.17,6.68,14.85,14.85,14.85h31.77c8.17,0,14.85-6.68,14.85-14.85V15.79c0-8.17-6.68-14.85-14.85-14.85ZM130.12,47.78h-9.12v-29.46h9.12v29.46ZM156.27,47.78h-7.66v-3.15c-1.07,1.34-2.05,2.24-2.93,2.71-1.18.62-2.49.92-3.94.92-2.91,0-5.13-1.11-6.66-3.32-1.53-2.21-2.3-4.9-2.3-8.06,0-3.54.85-6.24,2.54-8.12,1.69-1.88,3.85-2.81,6.46-2.81,1.27,0,2.43.21,3.47.64,1.04.43,1.96,1.07,2.76,1.93v-10.21h8.26v29.46Z"/>
    </g>
    <g>
      <path class="cls-1" d="M19.16,114.83h-2.33v5.9h2c1.58,0,2.68-.27,3.32-.82.64-.55.96-1.25.96-2.1s-.28-1.53-.83-2.11c-.55-.58-1.59-.87-3.12-.87Z"/>
      <path class="cls-1" d="M46.26,92.4H14.74c-8.11,0-14.74,6.63-14.74,14.74v31.52c0,8.11,6.63,14.74,14.74,14.74h31.52c8.11,0,14.74-6.63,14.74-14.74v-31.52c0-8.11-6.63-14.74-14.74-14.74ZM28.66,123.84c-1.61,1.5-4.06,2.26-7.36,2.26h-4.48v9.82h-8.21v-26.47h13.59c2.96,0,5.18.7,6.65,2.11,1.47,1.41,2.21,3.41,2.21,6.01s-.8,4.76-2.41,6.26ZM51.38,132.93c-.67,1.05-1.72,1.88-3.16,2.5-1.44.62-3.4.93-5.88.93-3.5,0-6-.5-7.48-1.5-1.49-1-2.44-2.42-2.86-4.26l7.29-.69c.3.87.72,1.49,1.26,1.86.54.37,1.26.56,2.17.56.99,0,1.75-.21,2.29-.63.42-.31.63-.7.63-1.17,0-.53-.28-.94-.83-1.23-.4-.2-1.45-.46-3.16-.76-2.55-.45-4.32-.86-5.32-1.24-.99-.38-1.83-1.02-2.51-1.92-.68-.9-1.02-1.93-1.02-3.08,0-1.26.37-2.35,1.1-3.26.73-.91,1.75-1.6,3.03-2.05,1.29-.45,3.01-.68,5.18-.68,2.29,0,3.97.17,5.06.52,1.09.35,2,.89,2.73,1.62.73.73,1.33,1.73,1.81,2.98l-6.97.69c-.18-.61-.48-1.07-.9-1.35-.58-.39-1.28-.58-2.09-.58s-1.44.15-1.81.44c-.38.29-.57.65-.57,1.07,0,.47.24.82.72,1.06.48.24,1.53.46,3.14.65,2.44.28,4.26.66,5.45,1.15,1.19.49,2.1,1.2,2.73,2.11.63.91.95,1.92.95,3.01s-.33,2.18-1,3.23Z"/>
    </g>
    <g>
      <path class="cls-1" d="M152.16,122.32c-1.09,0-1.96.43-2.61,1.3-.42.54-.68,1.34-.79,2.41h6.75c-.13-1.32-.49-2.27-1.07-2.84-.58-.57-1.34-.86-2.28-.86Z"/>
      <polygon class="cls-1" points="124.44 127.13 129.86 127.13 127.14 118.26 124.44 127.13"/>
      <path class="cls-1" d="M154.16,93.4h-32.04c-8.24,0-14.98,6.74-14.98,14.98v32.04c0,8.24,6.74,14.98,14.98,14.98h32.04c8.24,0,14.98-6.74,14.98-14.98v-32.04c0-8.24-6.74-14.98-14.98-14.98ZM132.68,136.54l-1.23-4.07h-8.66l-1.2,4.07h-7.78l9.27-24.67h8.32l9.27,24.67h-7.98ZM162.47,129.3h-13.73c.12,1.1.42,1.92.89,2.46.66.77,1.53,1.16,2.59,1.16.67,0,1.31-.17,1.92-.5.37-.21.77-.59,1.2-1.13l6.75.62c-1.03,1.8-2.28,3.08-3.74,3.86-1.46.78-3.55,1.17-6.28,1.17-2.37,0-4.23-.33-5.59-1-1.36-.67-2.48-1.73-3.37-3.18-.89-1.45-1.34-3.16-1.34-5.12,0-2.79.89-5.05,2.68-6.78,1.79-1.73,4.26-2.59,7.41-2.59,2.56,0,4.58.39,6.06,1.16,1.48.77,2.61,1.9,3.38,3.37.77,1.47,1.16,3.38,1.16,5.74v.77Z"/>
    </g>
  </g>
</svg>