<?xml version="1.0" encoding="UTF-8"?>
<svg id="Calque_2" data-name="Calque 2" xmlns="http://www.w3.org/2000/svg" viewBox="0 0 224.13 75.59">
  <defs>
    <style>
      .cls-1 {
        fill: #fff;
      }
    </style>
  </defs>
  <g id="Calque_4" data-name="Calque 4">
    <g>
      <g>
        <path class="cls-1" d="M71.94,23.77h34.82c2.72,0,5.26-1,5.26-4.08s-2.63-3.9-5.04-3.9l-35.04.04v7.94ZM53.1,0h52.84c14.51,0,23.85,5.63,23.85,16.79,0,7.17-4.08,11.16-8.25,12.7,5.26,1.54,9.52,6.26,9.52,13.52,0,10.07-5.53,17.7-24.66,17.7h-53.31l.25-13.29h-27.15c-3.24,0-5.61-2.1-6.52-4.64-.72-2.02-.22-4.25.86-5.58,1.36-1.68,2.63-2.76,4.75-2.76h27.98l-.28-11.34s.74-7.31-6.54-8.03h-23.26M71.94,36.75v8.35h34.55c4.08,0,5.8-1.45,5.8-4.26,0-2.63-1.72-4.08-5.8-4.08h-34.55Z"/>
        <path class="cls-1" d="M53.1,0H12.64C8.28,0,4.26,2.43,2.39,6.37-1.02,13.55.32,28.57,0,60.7l15.08-.08s-.33-23.83.35-37.53c0,0-.88-7.31,7.74-8.03h23.26"/>
      </g>
      <g>
        <path class="cls-1" d="M139.74,54.92c.24-.49.57-.86.99-1.12.42-.26.89-.39,1.4-.39.44,0,.83.09,1.16.27.33.18.59.42.77.71v-.89h1.92v6.27h-1.92v-.89c-.19.29-.45.53-.78.71s-.72.27-1.16.27c-.51,0-.97-.13-1.39-.4-.42-.27-.75-.64-.99-1.14-.24-.49-.37-1.06-.37-1.7s.12-1.21.37-1.7ZM143.67,55.5c-.27-.28-.59-.42-.97-.42s-.71.14-.97.41-.4.65-.4,1.13.13.86.4,1.14.59.42.97.42.71-.14.97-.42.4-.66.4-1.13-.13-.86-.4-1.13Z"/>
        <path class="cls-1" d="M150.07,53.68c.34-.18.72-.27,1.16-.27.52,0,.98.13,1.4.39.42.26.75.64.99,1.12.24.49.37,1.05.37,1.7s-.12,1.21-.37,1.7c-.24.49-.57.87-.99,1.14-.42.27-.89.4-1.4.4-.44,0-.83-.09-1.16-.26s-.59-.41-.77-.7v.88h-1.92v-8.32h1.92v2.93c.18-.29.44-.53.77-.71ZM151.64,55.49c-.27-.27-.59-.41-.98-.41s-.71.14-.97.42c-.27.28-.4.66-.4,1.13s.13.86.4,1.13c.27.28.59.42.97.42s.71-.14.98-.42c.27-.28.4-.66.4-1.14s-.13-.86-.4-1.13Z"/>
        <path class="cls-1" d="M159.83,55.02v1.6h-4.94v-1.6h4.94Z"/>
        <path class="cls-1" d="M165.06,53.68c.33.18.59.42.77.71v-.89h1.92v6.26c0,.58-.11,1.1-.34,1.57-.23.47-.58.84-1.04,1.12-.47.28-1.05.42-1.75.42-.93,0-1.68-.22-2.26-.66s-.91-1.03-.99-1.78h1.9c.06.24.2.43.43.57s.5.21.83.21c.4,0,.71-.11.95-.34.24-.23.35-.59.35-1.1v-.89c-.19.29-.45.53-.77.71-.33.18-.71.28-1.16.28-.52,0-.98-.13-1.4-.4-.42-.27-.75-.64-.99-1.14-.24-.49-.37-1.06-.37-1.7s.12-1.21.37-1.7c.24-.49.57-.86.99-1.12.42-.26.89-.39,1.4-.39.44,0,.83.09,1.16.27ZM165.43,55.5c-.27-.28-.59-.42-.97-.42s-.71.14-.97.41-.4.65-.4,1.13.13.86.4,1.14.59.42.97.42.71-.14.97-.42.4-.66.4-1.13-.13-.86-.4-1.13Z"/>
        <path class="cls-1" d="M171.9,53.73c.34-.2.71-.3,1.12-.3v2.03h-.53c-.48,0-.84.1-1.08.31-.24.21-.36.57-.36,1.08v2.91h-1.92v-6.27h1.92v1.04c.22-.34.5-.62.84-.81Z"/>
        <path class="cls-1" d="M173.93,54.92c.24-.49.57-.86.99-1.12.42-.26.89-.39,1.4-.39.44,0,.83.09,1.16.27.33.18.59.42.77.71v-.89h1.92v6.27h-1.92v-.89c-.19.29-.45.53-.78.71s-.72.27-1.16.27c-.51,0-.97-.13-1.39-.4-.42-.27-.75-.64-.99-1.14-.24-.49-.37-1.06-.37-1.7s.12-1.21.37-1.7ZM177.86,55.5c-.27-.28-.59-.42-.97-.42s-.71.14-.97.41-.4.65-.4,1.13.13.86.4,1.14.59.42.97.42.71-.14.97-.42.4-.66.4-1.13-.13-.86-.4-1.13Z"/>
        <path class="cls-1" d="M184.26,53.68c.33-.18.71-.27,1.16-.27.52,0,.98.13,1.4.39.42.26.75.64.99,1.12.24.49.37,1.05.37,1.7s-.12,1.21-.37,1.7c-.24.49-.57.87-.99,1.14-.42.27-.89.4-1.4.4-.43,0-.82-.09-1.15-.27s-.59-.41-.78-.7v3.87h-1.92v-9.26h1.92v.89c.19-.29.45-.53.77-.71ZM185.83,55.49c-.27-.27-.59-.41-.98-.41s-.71.14-.97.42c-.27.28-.4.66-.4,1.13s.13.86.4,1.13c.27.28.59.42.97.42s.71-.14.98-.42c.27-.28.4-.66.4-1.14s-.13-.86-.4-1.13Z"/>
        <path class="cls-1" d="M194.77,54.14c.43.48.65,1.13.65,1.96v3.66h-1.91v-3.4c0-.42-.11-.75-.33-.98-.22-.23-.51-.35-.88-.35s-.66.12-.88.35c-.22.23-.33.56-.33.98v3.4h-1.92v-8.32h1.92v2.89c.19-.28.46-.5.8-.66.34-.16.71-.25,1.13-.25.72,0,1.29.24,1.73.71Z"/>
        <path class="cls-1" d="M196.9,52.55c-.21-.2-.32-.44-.32-.74s.11-.55.32-.75c.21-.2.49-.3.83-.3s.6.1.81.3c.21.2.32.45.32.75s-.11.54-.32.74c-.21.2-.48.3-.81.3s-.61-.1-.83-.3ZM198.68,53.5v6.27h-1.92v-6.27h1.92Z"/>
        <path class="cls-1" d="M201.16,59.58c-.43-.19-.76-.44-1.01-.77-.25-.33-.39-.69-.42-1.1h1.9c.02.22.12.39.3.53s.4.2.66.2c.24,0,.42-.05.56-.14.13-.09.2-.21.2-.37,0-.18-.09-.31-.28-.4-.19-.09-.49-.18-.91-.29-.45-.11-.82-.22-1.12-.33-.3-.12-.56-.3-.78-.55-.22-.25-.33-.59-.33-1.02,0-.36.1-.69.3-.98.2-.3.49-.53.88-.7.39-.17.84-.26,1.38-.26.79,0,1.41.2,1.86.58.45.39.71.91.78,1.55h-1.77c-.03-.22-.12-.39-.29-.52-.16-.13-.37-.19-.63-.19-.22,0-.4.04-.52.13-.12.09-.18.2-.18.35,0,.18.1.32.29.41.19.09.49.18.89.27.46.12.84.24,1.13.35s.55.3.77.56c.22.26.33.6.34,1.04,0,.37-.1.7-.31.98s-.5.51-.89.68c-.39.17-.83.25-1.34.25-.55,0-1.03-.09-1.46-.28Z"/>
        <path class="cls-1" d="M216.19,54.14c.46.47.69,1.13.69,1.97v3.66h-1.91v-3.4c0-.41-.11-.72-.32-.94-.21-.22-.51-.33-.88-.33s-.67.11-.88.33c-.21.22-.32.53-.32.94v3.4h-1.91v-3.4c0-.41-.11-.72-.32-.94-.21-.22-.51-.33-.88-.33s-.67.11-.88.33c-.21.22-.32.53-.32.94v3.4h-1.92v-6.27h1.92v.79c.19-.26.45-.47.76-.62.31-.15.67-.23,1.07-.23.47,0,.89.1,1.26.3.37.2.66.49.87.87.22-.34.51-.62.89-.84.37-.22.78-.33,1.22-.33.78,0,1.4.24,1.86.71Z"/>
        <path class="cls-1" d="M224.1,57.09h-4.34c.03.39.16.69.38.89s.49.31.81.31c.48,0,.81-.2,1-.61h2.04c-.1.41-.29.78-.57,1.11-.27.33-.62.59-1.03.78-.41.19-.87.28-1.38.28-.61,0-1.16-.13-1.64-.39-.48-.26-.85-.64-1.12-1.12-.27-.49-.4-1.06-.4-1.71s.13-1.22.4-1.71c.27-.49.64-.86,1.12-1.12.48-.26,1.03-.39,1.65-.39s1.15.13,1.62.38c.47.25.84.62,1.11,1.09.27.47.4,1.02.4,1.65,0,.18-.01.37-.03.56ZM222.17,56.02c0-.33-.11-.59-.34-.79s-.51-.29-.84-.29-.59.09-.81.28c-.22.19-.36.45-.41.8h2.4Z"/>
      </g>
      <g>
        <path class="cls-1" d="M3.59,71.54c.32.18.57.44.75.76.18.33.27.7.27,1.12s-.09.79-.27,1.12c-.18.33-.43.58-.75.77-.32.18-.69.28-1.1.28s-.78-.09-1.1-.28c-.32-.18-.57-.44-.75-.77s-.27-.7-.27-1.12.09-.79.27-1.12.43-.58.75-.76c.32-.18.69-.27,1.1-.27s.78.09,1.1.27ZM1.56,71.83c-.26.15-.47.36-.61.63-.14.27-.21.59-.21.96s.07.68.21.96c.14.28.35.49.61.64.26.15.57.23.93.23s.67-.08.93-.23c.26-.15.47-.36.61-.64.14-.28.21-.6.21-.96s-.07-.69-.21-.96c-.14-.27-.35-.49-.61-.63-.26-.15-.57-.22-.93-.22s-.67.07-.93.22ZM1.81,72.24c-.2.11-.36.27-.47.47-.11.2-.17.44-.17.71s.06.51.17.71c.12.2.27.36.47.47.2.11.43.17.69.17.32,0,.59-.09.82-.27.23-.18.37-.42.44-.71h-.88c-.07.2-.2.29-.4.29-.15,0-.27-.06-.35-.17-.08-.11-.12-.28-.12-.49s.04-.38.12-.49.2-.17.35-.17c.1,0,.18.03.25.08s.12.12.15.22h.88c-.06-.3-.21-.54-.44-.72-.22-.18-.5-.26-.82-.26-.26,0-.48.05-.69.16Z"/>
        <path class="cls-1" d="M6.52,74.57c.39-.32.7-.59.93-.8.23-.21.42-.43.57-.65.16-.23.23-.45.23-.67,0-.16-.04-.29-.11-.38-.08-.09-.19-.14-.34-.14s-.27.06-.36.17-.13.28-.13.48h-.99c0-.34.08-.62.22-.85.14-.23.32-.4.55-.5.23-.11.48-.16.75-.16.48,0,.83.12,1.08.37.24.24.36.56.36.95,0,.43-.15.83-.44,1.19-.29.37-.66.72-1.12,1.07h1.62v.83h-3.01v-.76c.14-.11.2-.16.19-.15Z"/>
        <path class="cls-1" d="M10.19,71.66c.27-.4.7-.59,1.29-.59s1.02.2,1.29.59c.27.4.4.94.4,1.63s-.13,1.24-.4,1.64c-.27.4-.7.59-1.29.59s-1.02-.2-1.29-.59c-.27-.4-.4-.94-.4-1.64s.13-1.23.4-1.63ZM12.02,72.36c-.09-.22-.27-.33-.55-.33s-.46.11-.55.33c-.09.22-.13.53-.13.93,0,.27.02.5.05.67s.1.32.2.43c.1.11.24.17.43.17s.34-.05.43-.17c.1-.11.16-.25.2-.43s.05-.4.05-.67c0-.4-.04-.71-.13-.93Z"/>
        <path class="cls-1" d="M13.85,74.57c.39-.32.7-.59.93-.8.23-.21.42-.43.57-.65.16-.23.23-.45.23-.67,0-.16-.04-.29-.11-.38-.08-.09-.19-.14-.34-.14s-.27.06-.36.17-.13.28-.13.48h-.99c0-.34.08-.62.22-.85.14-.23.32-.4.55-.5.23-.11.48-.16.75-.16.48,0,.83.12,1.08.37.24.24.36.56.36.95,0,.43-.15.83-.44,1.19-.29.37-.66.72-1.12,1.07h1.62v.83h-3.01v-.76c.14-.11.2-.16.19-.15Z"/>
        <path class="cls-1" d="M20.21,72.05h-1.87v.83c.08-.09.19-.16.34-.22.14-.06.3-.08.47-.08.3,0,.55.07.75.2.2.14.34.31.43.53.09.22.14.45.14.7,0,.47-.13.84-.4,1.11-.26.27-.64.41-1.12.41-.32,0-.6-.06-.83-.17-.24-.11-.42-.26-.55-.46s-.2-.42-.21-.68h1c.02.12.08.23.17.31s.22.12.38.12c.19,0,.33-.06.42-.18.09-.12.14-.28.14-.48s-.05-.35-.14-.45c-.1-.1-.24-.16-.42-.16-.14,0-.25.03-.34.1-.09.07-.15.15-.17.26h-.99v-2.61h2.8v.9Z"/>
        <path class="cls-1" d="M25.03,74.8h-1.57l-.25.74h-1.07l1.52-4.21h1.19l1.52,4.21h-1.09l-.25-.74ZM24.76,74l-.52-1.54-.52,1.54h1.04Z"/>
        <path class="cls-1" d="M27.85,71.1v4.44h-1.03v-4.44h1.03Z"/>
        <path class="cls-1" d="M28.67,71.68c-.11-.11-.17-.24-.17-.39s.06-.29.17-.4c.11-.11.26-.16.44-.16s.32.05.44.16c.11.11.17.24.17.4s-.06.29-.17.39c-.11.11-.26.16-.44.16s-.33-.05-.44-.16ZM29.62,72.19v3.35h-1.03v-3.35h1.03Z"/>
        <path class="cls-1" d="M31.33,74.69h1.45v.85h-2.6v-.82l1.39-1.69h-1.38v-.85h2.56v.82l-1.42,1.69Z"/>
        <path class="cls-1" d="M36.48,74.11h-2.32c.02.21.08.37.2.48s.26.17.44.17c.26,0,.43-.11.53-.32h1.09c-.06.22-.16.42-.3.59-.15.18-.33.31-.55.41-.22.1-.47.15-.74.15-.33,0-.62-.07-.88-.21-.26-.14-.46-.34-.6-.6-.14-.26-.22-.56-.22-.91s.07-.65.21-.91c.14-.26.34-.46.6-.6.26-.14.55-.21.88-.21s.61.07.86.2.45.33.59.58c.14.25.21.55.21.88,0,.1,0,.2-.02.3ZM35.52,71.33l-1.45.61v-.71l1.45-.7v.8ZM35.45,73.54c0-.18-.06-.32-.18-.42-.12-.1-.27-.16-.45-.16s-.32.05-.43.15c-.12.1-.19.24-.22.43h1.28Z"/>
        <path class="cls-1" d="M40.18,74.11h-2.32c.02.21.08.37.2.48s.26.17.44.17c.26,0,.43-.11.53-.32h1.09c-.06.22-.16.42-.3.59-.15.18-.33.31-.55.41-.22.1-.47.15-.74.15-.33,0-.62-.07-.88-.21-.26-.14-.46-.34-.6-.6-.14-.26-.22-.56-.22-.91s.07-.65.21-.91c.14-.26.34-.46.6-.6.26-.14.55-.21.88-.21s.61.07.86.2.45.33.59.58c.14.25.21.55.21.88,0,.1,0,.2-.02.3ZM39.14,73.54c0-.18-.06-.32-.18-.42-.12-.1-.27-.16-.45-.16s-.32.05-.43.15c-.12.1-.19.24-.22.43h1.28Z"/>
        <path class="cls-1" d="M45.14,73.74c.15.19.22.41.22.65,0,.35-.12.63-.37.84s-.59.31-1.03.31h-1.96v-4.21h1.9c.43,0,.76.1,1.01.29.24.2.36.46.36.8,0,.25-.06.45-.19.62-.13.16-.3.28-.52.34.24.05.44.17.59.36ZM43.03,73.03h.67c.17,0,.3-.04.39-.11s.13-.18.13-.33-.04-.25-.13-.33-.22-.11-.39-.11h-.67v.88ZM44.19,74.59c.09-.08.14-.19.14-.34s-.05-.26-.15-.35-.23-.13-.41-.13h-.74v.93h.76c.17,0,.3-.04.4-.12Z"/>
        <path class="cls-1" d="M49.27,72.19v3.35h-1.03v-.46c-.1.15-.25.27-.42.36-.18.09-.38.14-.59.14-.26,0-.48-.06-.68-.17-.2-.11-.35-.28-.46-.5-.11-.22-.16-.47-.16-.76v-1.96h1.02v1.82c0,.22.06.4.17.52s.27.19.47.19.36-.06.47-.19c.12-.12.17-.3.17-.52v-1.82h1.03Z"/>
        <path class="cls-1" d="M51.48,72.31c.18-.11.38-.16.6-.16v1.09h-.28c-.26,0-.45.05-.58.17-.13.11-.19.3-.19.58v1.55h-1.03v-3.35h1.03v.56c.12-.18.27-.33.45-.44Z"/>
        <path class="cls-1" d="M53.21,75.38c-.26-.14-.47-.34-.62-.6-.15-.26-.22-.56-.22-.91s.08-.65.23-.91c.15-.26.36-.46.62-.6.26-.14.56-.21.89-.21s.62.07.89.21c.26.14.47.34.62.6s.23.56.23.91-.08.65-.23.91c-.15.26-.36.46-.63.6-.27.14-.56.21-.89.21s-.62-.07-.89-.21ZM54.6,74.48c.14-.14.21-.35.21-.62s-.07-.47-.2-.62c-.13-.14-.3-.22-.5-.22s-.37.07-.5.21c-.13.14-.2.35-.2.62s.07.47.2.62c.13.14.29.22.49.22s.36-.07.5-.22Z"/>
        <path class="cls-1" d="M59.37,72.54c.23.25.35.6.35,1.05v1.96h-1.02v-1.82c0-.22-.06-.4-.17-.52s-.27-.19-.47-.19-.35.06-.47.19c-.12.12-.17.3-.17.52v1.82h-1.03v-3.35h1.03v.44c.1-.15.24-.26.42-.35.18-.09.37-.13.59-.13.39,0,.71.13.94.38Z"/>
        <path class="cls-1" d="M64.29,73.01v.85h-2.64v-.85h2.64Z"/>
        <path class="cls-1" d="M69.49,71.33v.82h-1.12v3.39h-1.03v-3.39h-1.12v-.82h3.26Z"/>
        <path class="cls-1" d="M70.65,75.38c-.26-.14-.47-.34-.62-.6-.15-.26-.22-.56-.22-.91s.08-.65.23-.91c.15-.26.36-.46.62-.6.26-.14.56-.21.89-.21s.62.07.89.21c.26.14.47.34.62.6s.23.56.23.91-.08.65-.23.91c-.15.26-.36.46-.63.6-.27.14-.56.21-.89.21s-.62-.07-.89-.21ZM72.03,74.48c.14-.14.21-.35.21-.62s-.07-.47-.2-.62c-.13-.14-.3-.22-.5-.22s-.37.07-.5.21c-.13.14-.2.35-.2.62s.07.47.2.62c.13.14.29.22.49.22s.36-.07.5-.22Z"/>
        <path class="cls-1" d="M77.14,72.19v3.35h-1.03v-.46c-.1.15-.25.27-.42.36-.18.09-.38.14-.59.14-.26,0-.48-.06-.68-.17-.2-.11-.35-.28-.46-.5-.11-.22-.16-.47-.16-.76v-1.96h1.02v1.82c0,.22.06.4.17.52s.27.19.47.19.36-.06.47-.19c.12-.12.17-.3.17-.52v-1.82h1.03Z"/>
        <path class="cls-1" d="M78.46,75.44c-.23-.1-.41-.24-.54-.41-.13-.17-.21-.37-.22-.58h1.01c.01.12.07.21.16.28s.21.11.35.11c.13,0,.23-.03.3-.08.07-.05.11-.12.11-.2,0-.1-.05-.17-.15-.21-.1-.05-.26-.1-.49-.15-.24-.06-.44-.11-.6-.18-.16-.06-.3-.16-.41-.29-.12-.13-.17-.31-.17-.54,0-.19.05-.37.16-.52.11-.16.26-.28.47-.38.21-.09.45-.14.74-.14.42,0,.75.1.99.31.24.21.38.48.42.83h-.95c-.02-.12-.07-.21-.15-.28s-.2-.1-.34-.1c-.12,0-.21.02-.28.07-.06.05-.1.11-.1.19,0,.1.05.17.15.22.1.05.26.1.48.14.25.06.45.13.61.19.16.06.29.16.41.3s.18.32.18.55c0,.2-.05.37-.17.53s-.27.28-.47.36-.45.13-.72.13c-.29,0-.55-.05-.78-.15Z"/>
        <path class="cls-1" d="M82.48,72.95c.13-.26.31-.46.53-.6.22-.14.47-.21.75-.21.22,0,.42.05.6.14.18.09.33.22.43.37v-1.55h1.03v4.44h-1.03v-.48c-.1.16-.23.29-.41.38-.18.1-.38.14-.62.14-.28,0-.53-.07-.75-.21-.22-.14-.4-.34-.53-.61-.13-.26-.2-.56-.2-.91s.07-.65.2-.91ZM84.58,73.26c-.14-.15-.31-.22-.52-.22s-.38.07-.52.22c-.14.15-.21.35-.21.6s.07.46.21.61c.14.15.32.22.52.22s.38-.07.52-.22c.14-.15.21-.35.21-.61s-.07-.46-.21-.61Z"/>
        <path class="cls-1" d="M88.04,72.31c.18-.11.38-.16.6-.16v1.09h-.28c-.26,0-.45.05-.58.17-.13.11-.19.3-.19.58v1.55h-1.03v-3.35h1.03v.56c.12-.18.27-.33.45-.44Z"/>
        <path class="cls-1" d="M89.77,75.38c-.26-.14-.47-.34-.62-.6-.15-.26-.22-.56-.22-.91s.08-.65.23-.91c.15-.26.36-.46.62-.6.26-.14.56-.21.89-.21s.62.07.89.21c.26.14.47.34.62.6s.23.56.23.91-.08.65-.23.91c-.15.26-.36.46-.63.6-.27.14-.56.21-.89.21s-.62-.07-.89-.21ZM91.16,74.48c.14-.14.21-.35.21-.62s-.07-.47-.2-.62c-.13-.14-.3-.22-.5-.22s-.37.07-.5.21c-.13.14-.2.35-.2.62s.07.47.2.62c.13.14.29.22.49.22s.36-.07.5-.22Z"/>
        <path class="cls-1" d="M93.03,71.68c-.11-.11-.17-.24-.17-.39s.06-.29.17-.4c.11-.11.26-.16.44-.16s.32.05.44.16c.11.11.17.24.17.4s-.06.29-.17.39c-.11.11-.26.16-.44.16s-.33-.05-.44-.16ZM93.98,72.19v3.35h-1.03v-3.35h1.03Z"/>
        <path class="cls-1" d="M96.59,74.67v.87h-.52c-.37,0-.66-.09-.87-.27-.21-.18-.31-.48-.31-.89v-1.33h-.41v-.85h.41v-.82h1.03v.82h.67v.85h-.67v1.34c0,.1.02.17.07.22s.13.07.24.07h.37Z"/>
        <path class="cls-1" d="M97.75,75.44c-.23-.1-.41-.24-.54-.41-.13-.17-.21-.37-.22-.58h1.01c.01.12.07.21.16.28s.21.11.35.11c.13,0,.23-.03.3-.08.07-.05.11-.12.11-.2,0-.1-.05-.17-.15-.21-.1-.05-.26-.1-.49-.15-.24-.06-.44-.11-.6-.18-.16-.06-.3-.16-.41-.29-.12-.13-.17-.31-.17-.54,0-.19.05-.37.16-.52.11-.16.26-.28.47-.38.21-.09.45-.14.74-.14.42,0,.75.1.99.31.24.21.38.48.42.83h-.95c-.02-.12-.07-.21-.15-.28s-.2-.1-.34-.1c-.12,0-.21.02-.28.07-.06.05-.1.11-.1.19,0,.1.05.17.15.22.1.05.26.1.48.14.25.06.45.13.61.19.16.06.29.16.41.3s.18.32.18.55c0,.2-.05.37-.17.53s-.27.28-.47.36-.45.13-.72.13c-.29,0-.55-.05-.78-.15Z"/>
        <path class="cls-1" d="M103.26,72.31c.18-.11.38-.16.6-.16v1.09h-.28c-.26,0-.45.05-.58.17-.13.11-.19.3-.19.58v1.55h-1.03v-3.35h1.03v.56c.12-.18.27-.33.45-.44Z"/>
        <path class="cls-1" d="M107.49,74.11h-2.32c.02.21.08.37.2.48s.26.17.44.17c.26,0,.43-.11.53-.32h1.09c-.06.22-.16.42-.3.59-.15.18-.33.31-.55.41-.22.1-.47.15-.74.15-.33,0-.62-.07-.88-.21-.26-.14-.46-.34-.6-.6-.14-.26-.22-.56-.22-.91s.07-.65.21-.91c.14-.26.34-.46.6-.6.26-.14.55-.21.88-.21s.61.07.86.2.45.33.59.58c.14.25.21.55.21.88,0,.1,0,.2-.02.3ZM106.53,71.33l-1.45.61v-.71l1.45-.7v.8ZM106.46,73.54c0-.18-.06-.32-.18-.42-.12-.1-.27-.16-.45-.16s-.32.05-.43.15c-.12.1-.19.24-.22.43h1.28Z"/>
        <path class="cls-1" d="M108.63,75.44c-.23-.1-.41-.24-.54-.41-.13-.17-.21-.37-.22-.58h1.01c.01.12.07.21.16.28s.21.11.35.11c.13,0,.23-.03.3-.08.07-.05.11-.12.11-.2,0-.1-.05-.17-.15-.21-.1-.05-.26-.1-.49-.15-.24-.06-.44-.11-.6-.18-.16-.06-.3-.16-.41-.29-.12-.13-.17-.31-.17-.54,0-.19.05-.37.16-.52.11-.16.26-.28.47-.38.21-.09.45-.14.74-.14.42,0,.75.1.99.31.24.21.38.48.42.83h-.95c-.02-.12-.07-.21-.15-.28s-.2-.1-.34-.1c-.12,0-.21.02-.28.07-.06.05-.1.11-.1.19,0,.1.05.17.15.22.1.05.26.1.48.14.25.06.45.13.61.19.16.06.29.16.41.3s.18.32.18.55c0,.2-.05.37-.17.53s-.27.28-.47.36-.45.13-.72.13c-.29,0-.55-.05-.78-.15Z"/>
        <path class="cls-1" d="M114.53,74.11h-2.32c.02.21.08.37.2.48s.26.17.44.17c.26,0,.43-.11.53-.32h1.09c-.06.22-.16.42-.3.59-.15.18-.33.31-.55.41-.22.1-.47.15-.74.15-.33,0-.62-.07-.88-.21-.26-.14-.46-.34-.6-.6-.14-.26-.22-.56-.22-.91s.07-.65.21-.91c.14-.26.34-.46.6-.6.26-.14.55-.21.88-.21s.61.07.86.2.45.33.59.58c.14.25.21.55.21.88,0,.1,0,.2-.02.3ZM113.5,73.54c0-.18-.06-.32-.18-.42-.12-.1-.27-.16-.45-.16s-.32.05-.43.15c-.12.1-.19.24-.22.43h1.28Z"/>
        <path class="cls-1" d="M116.57,72.31c.18-.11.38-.16.6-.16v1.09h-.28c-.26,0-.45.05-.58.17-.13.11-.19.3-.19.58v1.55h-1.03v-3.35h1.03v.56c.12-.18.27-.33.45-.44Z"/>
        <path class="cls-1" d="M119.16,74.58l.73-2.39h1.09l-1.19,3.35h-1.27l-1.19-3.35h1.1l.73,2.39Z"/>
        <path class="cls-1" d="M124.55,74.11h-2.32c.02.21.08.37.2.48s.26.17.44.17c.26,0,.43-.11.53-.32h1.09c-.06.22-.16.42-.3.59-.15.18-.33.31-.55.41-.22.1-.47.15-.74.15-.33,0-.62-.07-.88-.21-.26-.14-.46-.34-.6-.6-.14-.26-.22-.56-.22-.91s.07-.65.21-.91c.14-.26.34-.46.6-.6.26-.14.55-.21.88-.21s.61.07.86.2.45.33.59.58c.14.25.21.55.21.88,0,.1,0,.2-.02.3ZM123.59,71.33l-1.45.61v-.71l1.45-.7v.8ZM123.52,73.54c0-.18-.06-.32-.18-.42-.12-.1-.27-.16-.45-.16s-.32.05-.43.15c-.12.1-.19.24-.22.43h1.28Z"/>
        <path class="cls-1" d="M125.69,75.44c-.23-.1-.41-.24-.54-.41-.13-.17-.21-.37-.22-.58h1.01c.01.12.07.21.16.28s.21.11.35.11c.13,0,.23-.03.3-.08.07-.05.11-.12.11-.2,0-.1-.05-.17-.15-.21-.1-.05-.26-.1-.49-.15-.24-.06-.44-.11-.6-.18-.16-.06-.3-.16-.41-.29-.12-.13-.17-.31-.17-.54,0-.19.05-.37.16-.52.11-.16.26-.28.47-.38.21-.09.45-.14.74-.14.42,0,.75.1.99.31.24.21.38.48.42.83h-.95c-.02-.12-.07-.21-.15-.28s-.2-.1-.34-.1c-.12,0-.21.02-.28.07-.06.05-.1.11-.1.19,0,.1.05.17.15.22.1.05.26.1.48.14.25.06.45.13.61.19.16.06.29.16.41.3s.18.32.18.55c0,.2-.05.37-.17.53s-.27.28-.47.36-.45.13-.72.13c-.29,0-.55-.05-.78-.15Z"/>
      </g>
    </g>
  </g>
</svg>