<?xml version="1.0" encoding="UTF-8"?>
<svg id="Calque_2" data-name="Calque 2" xmlns="http://www.w3.org/2000/svg" viewBox="0 0 226.62 80.54">
  <defs>
    <style>
      .cls-1 {
        font-family: Arial-Black, 'Arial Black';
        font-size: 15.87px;
        font-weight: 800;
      }

      .cls-1, .cls-2 {
        fill: #b9f305;
      }

      .cls-3 {
        fill: none;
        stroke: #b9f305;
        stroke-miterlimit: 10;
        stroke-width: 1.25px;
      }

      .cls-4 {
        letter-spacing: -.04em;
      }
    </style>
  </defs>
  <g id="Calque_4" data-name="Calque 4">
    <g>
      <text class="cls-1" transform="translate(0 13.61)"><tspan x="0" y="0">FRANÇAIS</tspan><tspan x="0" y="30.41">ANGLAIS</tspan><tspan x="0" y="60.82">NEERLAN</tspan><tspan class="cls-4" x="84.61" y="60.82">D</tspan><tspan x="96.27" y="60.82">AIS</tspan></text>
      <circle class="cls-2" cx="142.34" cy="8.12" r="6.24"/>
      <circle class="cls-2" cx="161.07" cy="8.12" r="6.24"/>
      <circle class="cls-2" cx="181.05" cy="8.12" r="6.24"/>
      <circle class="cls-2" cx="201.03" cy="8.12" r="6.24"/>
      <circle class="cls-2" cx="219.76" cy="8.12" r="6.24"/>
      <circle class="cls-2" cx="142.34" cy="39.33" r="6.24"/>
      <circle class="cls-2" cx="161.07" cy="39.33" r="6.24"/>
      <circle class="cls-2" cx="181.05" cy="39.33" r="6.24"/>
      <circle class="cls-3" cx="201.03" cy="39.33" r="6.24"/>
      <circle class="cls-3" cx="219.76" cy="39.33" r="6.24"/>
      <circle class="cls-2" cx="142.34" cy="69.3" r="6.24"/>
      <circle class="cls-2" cx="161.07" cy="69.3" r="6.24"/>
      <circle class="cls-2" cx="181.05" cy="69.3" r="6.24"/>
      <circle class="cls-3" cx="201.03" cy="69.3" r="6.24"/>
      <circle class="cls-3" cx="219.76" cy="69.3" r="6.24"/>
      <line class="cls-3" x1="201.03" y1="33.09" x2="201.03" y2="45.58"/>
      <path class="cls-2" d="M198.33,39.14c.37.69.51.69.41.01.02-.25.07-.5.15-.73.1-.32.31-1.14.75-1.13l-1.6-2.8c-.85,1.14-.43,2.53-.48,3.85-.07,1.79-.09,3.53.15,5.31l2.8-1.6c-.54-.25-.9-.46-1.23-.97-1.31-1.99-4.53-.13-3.21,1.88.67,1.02,1.44,1.78,2.56,2.3s3-.06,2.8-1.6c-.18-1.37-.24-2.72-.2-4.1.02-.58.07-1.16.07-1.74,0-.33-.24-1.18-.05-1.44.87-1.18-.32-2.78-1.6-2.8-4.12-.04-6.99,8.26-2.3,9.15,2.34.45,3.34-3.14.99-3.58h0Z"/>
    </g>
  </g>
</svg>