<?xml version="1.0" encoding="UTF-8"?>
<svg id="Calque_2" data-name="Calque 2" xmlns="http://www.w3.org/2000/svg" viewBox="0 0 31.83 31.83">
  <g id="Calque_4" data-name="Calque 4">
    <path d="M24.14,0H7.69C3.46,0,0,3.46,0,7.69v16.45c0,4.23,3.46,7.69,7.69,7.69h16.45c4.23,0,7.69-3.46,7.69-7.69V7.69c0-4.23-3.46-7.69-7.69-7.69ZM11.32,22.82h-3.83v-10h3.83v10ZM11.32,11.62h-3.83v-2.61h3.83v2.61ZM24.35,22.82h-3.85v-5.5c0-.63-.12-1.07-.35-1.33-.23-.26-.56-.39-.98-.39-.46,0-.84.18-1.13.53-.29.35-.43.98-.43,1.89v4.8h-3.83v-10h3.57v1.63c.53-.67,1.07-1.14,1.62-1.43.55-.29,1.21-.43,2-.43,1.06,0,1.89.32,2.49.95.6.63.9,1.61.9,2.92v6.36Z"/>
  </g>
</svg>