<?xml version="1.0" encoding="UTF-8"?>
<svg id="Calque_2" data-name="Calque 2" xmlns="http://www.w3.org/2000/svg" viewBox="0 0 249.69 69.14">
  <defs>
    <style>
      .cls-1 {
        fill: #b9f305;
      }
    </style>
  </defs>
  <g id="Calque_4" data-name="Calque 4">
    <g>
      <path class="cls-1" d="M76.89,25.39h37.21c2.91,0,5.62-1.07,5.62-4.36s-2.81-4.17-5.39-4.17l-37.45.05v8.48ZM56.76,0h56.47c15.5,0,25.49,6.01,25.49,17.93,0,7.65-4.36,11.92-8.82,13.56,5.62,1.65,10.17,6.69,10.17,14.44,0,10.76-5.91,18.9-26.36,18.9h-56.98l.26-14.19h-29.02c-3.46,0-6-2.24-6.96-4.96-.77-2.16-.23-4.54.92-5.96,1.46-1.79,2.81-2.95,5.08-2.95h29.9l-.3-12.11s.79-7.8-6.99-8.58h-24.86M76.89,39.25v8.91h36.92c4.36,0,6.2-1.55,6.2-4.55,0-2.81-1.84-4.36-6.2-4.36h-36.92Z"/>
      <path class="cls-1" d="M56.76,0H13.51C8.85,0,4.55,2.6,2.55,6.8-1.09,14.47.35,30.51,0,64.83l16.11-.08s-.35-25.45.37-40.08c0,0-.94-7.8,8.27-8.58h24.86"/>
    </g>
    <g>
      <path class="cls-1" d="M144.46,59.26c.3-.61.72-1.07,1.24-1.4s1.11-.49,1.75-.49c.55,0,1.03.11,1.45.34.42.22.73.52.96.88v-1.11h2.39v7.81h-2.39v-1.11c-.23.36-.56.66-.97.88-.42.22-.9.34-1.45.34-.63,0-1.21-.17-1.74-.5-.52-.33-.94-.8-1.24-1.41-.3-.61-.46-1.32-.46-2.12s.15-1.51.46-2.11ZM149.36,59.97c-.33-.35-.74-.52-1.21-.52s-.88.17-1.21.51c-.33.34-.5.81-.5,1.41s.17,1.07.5,1.42c.33.35.73.52,1.21.52s.88-.17,1.21-.52c.33-.35.5-.82.5-1.41s-.17-1.07-.5-1.41Z"/>
      <path class="cls-1" d="M157.35,57.7c.42-.22.9-.34,1.44-.34.64,0,1.23.16,1.75.49s.94.79,1.24,1.4c.3.61.46,1.31.46,2.11s-.15,1.51-.46,2.12c-.3.61-.72,1.08-1.24,1.41-.52.33-1.11.5-1.75.5-.55,0-1.03-.11-1.44-.33-.41-.22-.73-.51-.97-.88v1.09h-2.39v-10.36h2.39v3.65c.22-.36.55-.66.97-.88ZM159.3,59.96c-.33-.34-.74-.51-1.22-.51s-.88.17-1.21.52-.5.82-.5,1.41.17,1.07.5,1.41c.33.35.74.52,1.21.52s.88-.17,1.22-.52.5-.82.5-1.42-.17-1.07-.5-1.41Z"/>
      <path class="cls-1" d="M169.52,59.38v1.99h-6.16v-1.99h6.16Z"/>
      <path class="cls-1" d="M176.03,57.7c.42.22.73.52.96.88v-1.11h2.39v7.8c0,.72-.14,1.37-.43,1.95-.29.58-.72,1.05-1.3,1.39-.58.35-1.31.52-2.18.52-1.16,0-2.1-.27-2.81-.82-.72-.55-1.13-1.29-1.23-2.22h2.37c.08.3.25.53.53.71.28.17.62.26,1.04.26.49,0,.89-.14,1.18-.43s.44-.74.44-1.37v-1.11c-.23.36-.56.66-.97.89-.41.23-.89.34-1.44.34-.64,0-1.23-.17-1.75-.5-.52-.33-.94-.8-1.24-1.41-.3-.61-.46-1.32-.46-2.12s.15-1.51.46-2.11c.3-.61.72-1.07,1.24-1.4s1.11-.49,1.75-.49c.55,0,1.03.11,1.45.34ZM176.49,59.97c-.33-.35-.74-.52-1.21-.52s-.88.17-1.21.51c-.33.34-.5.81-.5,1.41s.17,1.07.5,1.42c.33.35.73.52,1.21.52s.88-.17,1.21-.52c.33-.35.5-.82.5-1.41s-.17-1.07-.5-1.41Z"/>
      <path class="cls-1" d="M184.57,57.77c.42-.25.89-.37,1.4-.37v2.53h-.66c-.6,0-1.04.13-1.34.38-.3.26-.45.71-.45,1.35v3.63h-2.39v-7.81h2.39v1.3c.28-.43.63-.77,1.05-1.02Z"/>
      <path class="cls-1" d="M187.09,59.26c.3-.61.72-1.07,1.24-1.4s1.11-.49,1.75-.49c.55,0,1.03.11,1.45.34.42.22.73.52.96.88v-1.11h2.39v7.81h-2.39v-1.11c-.23.36-.56.66-.97.88-.42.22-.9.34-1.45.34-.63,0-1.21-.17-1.74-.5-.52-.33-.94-.8-1.24-1.41-.3-.61-.46-1.32-.46-2.12s.15-1.51.46-2.11ZM191.99,59.97c-.33-.35-.74-.52-1.21-.52s-.88.17-1.21.51c-.33.34-.5.81-.5,1.41s.17,1.07.5,1.42c.33.35.73.52,1.21.52s.88-.17,1.21-.52c.33-.35.5-.82.5-1.41s-.17-1.07-.5-1.41Z"/>
      <path class="cls-1" d="M199.98,57.7c.41-.22.89-.34,1.44-.34.64,0,1.23.16,1.75.49s.94.79,1.24,1.4c.3.61.46,1.31.46,2.11s-.15,1.51-.46,2.12c-.3.61-.72,1.08-1.24,1.41-.52.33-1.11.5-1.75.5-.54,0-1.02-.11-1.43-.34-.42-.22-.74-.51-.97-.87v4.82h-2.39v-11.54h2.39v1.11c.23-.36.56-.66.97-.88ZM201.93,59.96c-.33-.34-.74-.51-1.22-.51s-.88.17-1.21.52-.5.82-.5,1.41.17,1.07.5,1.41c.33.35.74.52,1.21.52s.88-.17,1.22-.52.5-.82.5-1.42-.17-1.07-.5-1.41Z"/>
      <path class="cls-1" d="M213.08,58.28c.54.59.81,1.41.81,2.44v4.56h-2.38v-4.24c0-.52-.13-.93-.41-1.22-.27-.29-.63-.43-1.09-.43s-.82.15-1.09.43c-.27.29-.41.7-.41,1.22v4.24h-2.39v-10.36h2.39v3.6c.24-.35.57-.62.99-.83s.89-.31,1.41-.31c.9,0,1.61.3,2.16.89Z"/>
      <path class="cls-1" d="M215.74,56.3c-.27-.25-.4-.55-.4-.92s.13-.68.4-.93c.27-.25.61-.37,1.03-.37s.75.12,1.01.37c.27.25.4.56.4.93s-.13.67-.4.92c-.27.25-.6.37-1.01.37s-.76-.12-1.03-.37ZM217.95,57.48v7.81h-2.39v-7.81h2.39Z"/>
      <path class="cls-1" d="M221.05,65.05c-.53-.23-.95-.55-1.26-.96-.31-.41-.48-.86-.52-1.37h2.37c.03.27.15.49.38.66.22.17.5.25.83.25.3,0,.53-.06.69-.18.16-.12.25-.27.25-.46,0-.22-.12-.39-.35-.5-.23-.11-.61-.23-1.13-.36-.56-.13-1.03-.27-1.4-.41-.37-.14-.7-.37-.97-.69-.27-.31-.41-.74-.41-1.27,0-.45.12-.86.37-1.23.25-.37.61-.66,1.09-.88.48-.21,1.05-.32,1.71-.32.98,0,1.75.24,2.32.73.56.49.89,1.13.97,1.93h-2.21c-.04-.27-.16-.48-.36-.64-.2-.16-.46-.24-.79-.24-.28,0-.49.05-.64.16s-.22.25-.22.44c0,.22.12.39.36.5s.61.22,1.11.34c.58.15,1.05.3,1.41.44.36.15.68.38.96.7s.42.75.43,1.29c0,.46-.13.87-.38,1.23s-.63.64-1.11.85c-.48.21-1.04.31-1.67.31-.68,0-1.29-.12-1.82-.35Z"/>
      <path class="cls-1" d="M239.79,58.28c.57.59.86,1.4.86,2.45v4.56h-2.38v-4.24c0-.5-.13-.89-.4-1.17-.27-.27-.63-.41-1.1-.41s-.83.14-1.1.41c-.27.28-.4.67-.4,1.17v4.24h-2.38v-4.24c0-.5-.13-.89-.4-1.17-.27-.27-.63-.41-1.1-.41s-.83.14-1.1.41c-.27.28-.4.67-.4,1.17v4.24h-2.39v-7.81h2.39v.98c.24-.33.56-.59.95-.78.39-.19.83-.29,1.33-.29.59,0,1.11.13,1.58.38s.82.61,1.08,1.08c.27-.43.64-.78,1.11-1.05.47-.27.98-.41,1.53-.41.97,0,1.74.29,2.32.88Z"/>
      <path class="cls-1" d="M249.65,61.96h-5.42c.04.49.19.86.47,1.11.28.26.61.39,1.01.39.6,0,1.01-.25,1.25-.76h2.55c-.13.51-.37.98-.71,1.39-.34.41-.77.73-1.28.97-.51.23-1.09.35-1.72.35-.77,0-1.45-.16-2.04-.49s-1.06-.79-1.4-1.4c-.34-.61-.5-1.32-.5-2.13s.17-1.52.5-2.13c.33-.61.8-1.07,1.39-1.4.6-.33,1.28-.49,2.06-.49s1.43.16,2.02.48c.59.32,1.05.77,1.38,1.36.33.59.5,1.27.5,2.06,0,.22-.01.46-.04.7ZM247.24,60.63c0-.41-.14-.74-.42-.98-.28-.24-.63-.36-1.05-.36s-.74.12-1.01.35-.45.56-.51.99h3Z"/>
    </g>
  </g>
</svg>