<?xml version="1.0" encoding="UTF-8"?>
<svg id="Calque_2" data-name="Calque 2" xmlns="http://www.w3.org/2000/svg" viewBox="0 0 36.93 36.92">
  <g id="Calque_4" data-name="Calque 4">
    <path d="M11.96,9.49c-1.04.85-2.84,1.6-3.77,2.48-.18.17-.4.37-.39.65,0,.21.65,1.63.8,1.95,2.45,5.3,7.46,10.45,12.6,13.17.56.3,2.84,1.46,3.29,1.33.63-.19,2.36-3.44,2.93-4.12l.43-.16,8.81,2.88c.17.12.17.28.19.46.15,1.13.07,4.05-.3,5.1-1.42,4.05-5.54,3.89-9.09,3.5C15.09,35.35,4.45,26.09,1.12,14.16-.07,9.88-1.75.83,4.72.07c.6-.07,3.86-.12,4.3.01.23.07.27.24.36.43,1.14,2.44,1.59,5.57,2.73,8.06l-.14.92Z"/>
  </g>
</svg>